<svg xmlns="http://www.w3.org/2000/svg" version="1.1" xmlns:xlink="http://www.w3.org/1999/xlink" xmlns:svgjs="http://svgjs.com/svgjs" width="176.57" height="190.57"><svg xmlns="http://www.w3.org/2000/svg" viewBox="0 0 176.57 190.57"><defs><style>.cls-1{fill:#0e6bad;}.cls-2{fill:#f2a028;}.cls-3{fill:#73b32d;}</style></defs><g id="SvgjsG1001" data-name="Layer 2"><g id="SvgjsG1000"><path class="cls-1" d="M143.3,123.89l-14.44-8.32H91.17l-14.43,8.32c13.81,24,55.1,63.27,99.83,66.68-15.59-8.74-40.4-40.11-33.27-66.68"></path><path class="cls-2" d="M112.39,78.81h0l-.28-.49ZM153.48,0c.24,17.87-14.52,55-41.1,62.15V78.81l18.85,32.64,14.42,8.34c13.87-24,27.25-79.35,7.82-119.79"></path><path class="cls-3" d="M88.8,111.45h0l-.29.49Zm18.85-49.3C80,62.11,25.3,78.23,0,115.28c15.36-9.14,54.92-15,74.38,4.52l14.42-8.35,18.84-32.64Z"></path><path class="cls-1" d="M101.18,101.94a8.84,8.84,0,1,1,8.84,8.84,8.83,8.83,0,0,1-8.84-8.84"></path></g></g></svg><style>@media (prefers-color-scheme: light) { :root { filter: none; } }
@media (prefers-color-scheme: dark) { :root { filter: contrast(0.3846153846153846) brightness(4.5); } }
</style></svg>