<svg id="Layer_1" data-name="Layer 1" xmlns="http://www.w3.org/2000/svg" viewBox="0 0 300 200"><defs><style>.cls-1{fill:#1c1c1b;}.cls-2{fill:#3d3c3f;}.cls-3{fill:#3d3c3c;}.cls-4{fill:#4d4d4d;}.cls-5{fill:#fece58;}.cls-6{fill:#2ab570;}.cls-7{fill:#fdcd58;}.cls-8{fill:#fbfbfb;}.cls-9{fill:#f9f9f9;}.cls-10{fill:#b6b6b6;}.cls-11{fill:#3f3a35;}.cls-12{fill:#fdfefe;}.cls-13{fill:#fdfefd;}.cls-14{fill:#fbf7f6;}</style></defs><path class="cls-1" d="M105.72,165h4.15v1.25h-5.64V155.45h1.49Z"/><path class="cls-1" d="M114.57,158.08a4.19,4.19,0,0,1,1.58.29,3.24,3.24,0,0,1,1.19.83,3.59,3.59,0,0,1,.76,1.29,5.72,5.72,0,0,1,0,3.41,3.72,3.72,0,0,1-.76,1.3,3.34,3.34,0,0,1-1.19.82,4.45,4.45,0,0,1-3.16,0,3.29,3.29,0,0,1-1.2-.82,3.74,3.74,0,0,1-.77-1.3,5.72,5.72,0,0,1,0-3.41,3.61,3.61,0,0,1,.77-1.29,3.19,3.19,0,0,1,1.2-.83A4.19,4.19,0,0,1,114.57,158.08Zm0,7.11a2.28,2.28,0,0,0,1-.2,1.87,1.87,0,0,0,.73-.58,2.63,2.63,0,0,0,.43-.94,4.89,4.89,0,0,0,.14-1.27,4.94,4.94,0,0,0-.14-1.27,2.63,2.63,0,0,0-.43-.94,2.09,2.09,0,0,0-.73-.59,2.43,2.43,0,0,0-1-.2,2.56,2.56,0,0,0-1,.2,2,2,0,0,0-.72.59,2.64,2.64,0,0,0-.44.94,5.42,5.42,0,0,0-.14,1.27,5.36,5.36,0,0,0,.14,1.27,2.64,2.64,0,0,0,.44.94,1.77,1.77,0,0,0,.72.58A2.4,2.4,0,0,0,114.57,165.19Z"/><path class="cls-1" d="M125.27,159.64a.92.92,0,0,1-.13.14.3.3,0,0,1-.18,0,.4.4,0,0,1-.25-.1l-.33-.21a2.15,2.15,0,0,0-.48-.22,1.94,1.94,0,0,0-.69-.1,2.08,2.08,0,0,0-.95.21,1.89,1.89,0,0,0-.69.6,2.79,2.79,0,0,0-.41.94,4.81,4.81,0,0,0-.15,1.25,4.94,4.94,0,0,0,.15,1.28,3.21,3.21,0,0,0,.43.95,1.94,1.94,0,0,0,.67.58,2,2,0,0,0,.89.2,2.11,2.11,0,0,0,.77-.12,2.2,2.2,0,0,0,.51-.27,4,4,0,0,0,.34-.27.41.41,0,0,1,.28-.12.28.28,0,0,1,.26.14l.42.52a3,3,0,0,1-.58.55,3.32,3.32,0,0,1-.69.39,3.9,3.9,0,0,1-.76.22,4.36,4.36,0,0,1-.81.07,3.2,3.2,0,0,1-1.31-.27,3.13,3.13,0,0,1-1.07-.81,3.81,3.81,0,0,1-.71-1.29,5.91,5.91,0,0,1,0-3.4,3.94,3.94,0,0,1,.69-1.3,3.15,3.15,0,0,1,1.12-.85,3.5,3.5,0,0,1,4,.73Z"/><path class="cls-1" d="M132.27,166.2a.56.56,0,0,1-.32-.07.36.36,0,0,1-.16-.27l-.18-.74c-.21.19-.41.36-.61.51a3.69,3.69,0,0,1-.62.38,3.28,3.28,0,0,1-.71.23,3.51,3.51,0,0,1-.82.08,3,3,0,0,1-.87-.12,2.12,2.12,0,0,1-.72-.4,1.91,1.91,0,0,1-.48-.66,2.43,2.43,0,0,1-.17-.94,1.79,1.79,0,0,1,.25-.91,2.37,2.37,0,0,1,.84-.78,5.57,5.57,0,0,1,1.51-.56,11.85,11.85,0,0,1,2.29-.25v-.61a2.14,2.14,0,0,0-.39-1.4,1.42,1.42,0,0,0-1.16-.47,2.34,2.34,0,0,0-.85.13,2.81,2.81,0,0,0-.6.28c-.17.11-.32.2-.44.29a.62.62,0,0,1-.37.13.44.44,0,0,1-.26-.07.52.52,0,0,1-.17-.19l-.26-.46a4.64,4.64,0,0,1,1.43-1,4.39,4.39,0,0,1,1.69-.32,3.21,3.21,0,0,1,1.2.22,2.2,2.2,0,0,1,.87.62,2.68,2.68,0,0,1,.54.95,4,4,0,0,1,.18,1.24v5.11Zm-3-.88a2.71,2.71,0,0,0,.66-.08,2.58,2.58,0,0,0,.57-.21,2.85,2.85,0,0,0,.52-.33,4,4,0,0,0,.47-.45V162.6a12.83,12.83,0,0,0-1.62.16,4.06,4.06,0,0,0-1.09.32,1.38,1.38,0,0,0-.61.46,1,1,0,0,0-.19.59,1.27,1.27,0,0,0,.1.54,1,1,0,0,0,.27.36,1.25,1.25,0,0,0,.41.22A2.09,2.09,0,0,0,129.28,165.32Z"/><path class="cls-1" d="M136.58,154.57V166.2h-1.44V154.57Z"/><path class="cls-1" d="M149,155.45v1.21h-4.79v3.53h3.85v1.17h-3.85V165H149v1.21h-6.28V155.45Z"/><path class="cls-1" d="M153.79,166.2h-1.3l-3-8h1.19a.42.42,0,0,1,.27.09.46.46,0,0,1,.16.21l1.71,5.12c.07.19.13.37.18.55s.09.36.14.55c0-.18.08-.36.13-.54s.12-.37.19-.56l1.74-5.12a.37.37,0,0,1,.16-.21.37.37,0,0,1,.25-.09h1.13Z"/><path class="cls-1" d="M161.13,158.08a3.61,3.61,0,0,1,1.33.24,3.08,3.08,0,0,1,1.07.69,3.28,3.28,0,0,1,.7,1.12,4.21,4.21,0,0,1,.25,1.52.89.89,0,0,1-.07.45.31.31,0,0,1-.27.11h-5.35a4.23,4.23,0,0,0,.21,1.31,2.47,2.47,0,0,0,.52.93,2.13,2.13,0,0,0,.78.55,2.82,2.82,0,0,0,1,.19,3,3,0,0,0,.9-.12,3.47,3.47,0,0,0,.66-.27l.46-.27a.75.75,0,0,1,.33-.11.41.41,0,0,1,.16,0,.38.38,0,0,1,.11.11l.41.52a2.77,2.77,0,0,1-.63.55,4.73,4.73,0,0,1-.78.39,5,5,0,0,1-.87.22,5.22,5.22,0,0,1-.88.07,4.24,4.24,0,0,1-1.53-.27,3.31,3.31,0,0,1-1.22-.83,4,4,0,0,1-.8-1.34,5.41,5.41,0,0,1-.28-1.83,4.41,4.41,0,0,1,.26-1.56,3.78,3.78,0,0,1,.74-1.26,3.3,3.3,0,0,1,1.19-.84A3.92,3.92,0,0,1,161.13,158.08Zm0,1a2.15,2.15,0,0,0-1.59.58,2.81,2.81,0,0,0-.73,1.62h4.36a2.77,2.77,0,0,0-.14-.89,1.94,1.94,0,0,0-.4-.7,1.85,1.85,0,0,0-.64-.45A2.13,2.13,0,0,0,161.15,159.13Z"/><path class="cls-1" d="M166.23,166.2v-8h.86a.44.44,0,0,1,.25.07.29.29,0,0,1,.12.23l.12.85a4.32,4.32,0,0,1,1.15-.92,3.08,3.08,0,0,1,1.48-.35,2.78,2.78,0,0,1,1.15.22,2.3,2.3,0,0,1,.83.61,2.58,2.58,0,0,1,.5,1,4,4,0,0,1,.17,1.23v5.1h-1.43v-5.1a2.17,2.17,0,0,0-.41-1.39,1.49,1.49,0,0,0-1.23-.49,2.31,2.31,0,0,0-1.15.29,3.6,3.6,0,0,0-1,.8v5.89Z"/><path class="cls-1" d="M177.14,166.32a1.87,1.87,0,0,1-1.42-.53,2.14,2.14,0,0,1-.5-1.52V159.4h-.92a.29.29,0,0,1-.21-.09.32.32,0,0,1-.08-.23v-.58l1.26-.16.33-2.46a.31.31,0,0,1,.11-.2.3.3,0,0,1,.21-.07h.74v2.74h2.2v1.05h-2.2v4.77a1.07,1.07,0,0,0,.22.74.78.78,0,0,0,.59.24.93.93,0,0,0,.62-.19,1.4,1.4,0,0,0,.18-.13.33.33,0,0,1,.15-.05.21.21,0,0,1,.12,0,.35.35,0,0,1,.08.11l.43.68a2.58,2.58,0,0,1-.87.53A2.82,2.82,0,0,1,177.14,166.32Z"/><path class="cls-1" d="M187.55,158.08a4.19,4.19,0,0,1,1.58.29,3.16,3.16,0,0,1,1.19.83,3.59,3.59,0,0,1,.76,1.29,5.72,5.72,0,0,1,0,3.41,3.72,3.72,0,0,1-.76,1.3,3.25,3.25,0,0,1-1.19.82,4.45,4.45,0,0,1-3.16,0,3.37,3.37,0,0,1-1.2-.82,3.57,3.57,0,0,1-.76-1.3,5.52,5.52,0,0,1,0-3.41,3.45,3.45,0,0,1,.76-1.29,3.27,3.27,0,0,1,1.2-.83A4.19,4.19,0,0,1,187.55,158.08Zm0,7.11a2.25,2.25,0,0,0,1-.2,1.87,1.87,0,0,0,.73-.58,2.63,2.63,0,0,0,.43-.94,4.89,4.89,0,0,0,.14-1.27,4.94,4.94,0,0,0-.14-1.27,2.63,2.63,0,0,0-.43-.94,2.09,2.09,0,0,0-.73-.59,2.39,2.39,0,0,0-1-.2,2.56,2.56,0,0,0-1,.2,2,2,0,0,0-.72.59,2.64,2.64,0,0,0-.44.94,5.42,5.42,0,0,0-.14,1.27,5.36,5.36,0,0,0,.14,1.27,2.64,2.64,0,0,0,.44.94,1.77,1.77,0,0,0,.72.58A2.4,2.4,0,0,0,187.55,165.19Z"/><path class="cls-1" d="M193.1,166.2v-8H194a.46.46,0,0,1,.25.07.29.29,0,0,1,.12.23l.12.85a4.32,4.32,0,0,1,1.15-.92,3.08,3.08,0,0,1,1.48-.35,2.78,2.78,0,0,1,1.15.22,2.3,2.3,0,0,1,.83.61,2.58,2.58,0,0,1,.5,1,4,4,0,0,1,.17,1.23v5.1h-1.44v-5.1a2.17,2.17,0,0,0-.4-1.39,1.49,1.49,0,0,0-1.23-.49,2.31,2.31,0,0,0-1.15.29,3.6,3.6,0,0,0-1,.8v5.89Z"/><path class="cls-1" d="M212,155.45v1.21h-4.79v3.53h3.86v1.17h-3.86V165H212v1.21h-6.28V155.45Z"/><path class="cls-1" d="M219.24,166.2a.42.42,0,0,1-.26-.07.32.32,0,0,1-.11-.23l-.15-1a4.3,4.3,0,0,1-1.15,1,2.93,2.93,0,0,1-1.5.37,2.77,2.77,0,0,1-1.23-.26,2.61,2.61,0,0,1-.94-.78,3.81,3.81,0,0,1-.61-1.28,6.69,6.69,0,0,1-.21-1.76,5.82,5.82,0,0,1,.23-1.65,3.93,3.93,0,0,1,.68-1.32,3.14,3.14,0,0,1,1.07-.88,3.18,3.18,0,0,1,1.44-.32,2.92,2.92,0,0,1,1.24.24,3.08,3.08,0,0,1,.92.7v-4.43h1.44V166.2Zm-2.7-1a2.19,2.19,0,0,0,1.18-.31,3.68,3.68,0,0,0,.94-.88V160.1a2.22,2.22,0,0,0-.84-.72,2.33,2.33,0,0,0-1-.21,2,2,0,0,0-1.67.79,3.77,3.77,0,0,0-.59,2.27,5.76,5.76,0,0,0,.13,1.33,2.63,2.63,0,0,0,.39.91,1.54,1.54,0,0,0,.62.52A2.07,2.07,0,0,0,216.54,165.16Z"/><path class="cls-1" d="M223.73,158.2v5.1a2.13,2.13,0,0,0,.41,1.39,1.5,1.5,0,0,0,1.23.5,2.26,2.26,0,0,0,1.14-.3,3.59,3.59,0,0,0,1-.79v-5.9h1.44v8h-.87a.41.41,0,0,1-.25-.07.32.32,0,0,1-.11-.23l-.13-.85a4.16,4.16,0,0,1-1.15.92,2.91,2.91,0,0,1-1.47.35,2.78,2.78,0,0,1-1.15-.22,2.19,2.19,0,0,1-.83-.61,2.58,2.58,0,0,1-.5-1,4,4,0,0,1-.17-1.23v-5.1Z"/><path class="cls-1" d="M236.36,159.64a.6.6,0,0,1-.13.14.29.29,0,0,1-.17,0,.43.43,0,0,1-.26-.1l-.32-.21a2.15,2.15,0,0,0-.48-.22,2,2,0,0,0-.69-.1,2.12,2.12,0,0,0-1,.21,1.86,1.86,0,0,0-.68.6,3,3,0,0,0-.42.94,5.31,5.31,0,0,0-.14,1.25,4.94,4.94,0,0,0,.15,1.28,2.77,2.77,0,0,0,.43.95,1.86,1.86,0,0,0,.67.58,1.93,1.93,0,0,0,.88.2,2.13,2.13,0,0,0,.78-.12,2.43,2.43,0,0,0,.51-.27,3.72,3.72,0,0,0,.33-.27.44.44,0,0,1,.29-.12.29.29,0,0,1,.26.14l.42.52a3.33,3.33,0,0,1-.58.55,3.93,3.93,0,0,1-.69.39,4,4,0,0,1-.77.22,4.25,4.25,0,0,1-.8.07,3,3,0,0,1-2.39-1.08,4,4,0,0,1-.71-1.29,6.14,6.14,0,0,1,0-3.4,3.94,3.94,0,0,1,.69-1.3,3.24,3.24,0,0,1,1.12-.85,3.59,3.59,0,0,1,1.54-.31,3.54,3.54,0,0,1,1.43.27,3.6,3.6,0,0,1,1.09.77Z"/><path class="cls-1" d="M243.37,166.2a.62.62,0,0,1-.33-.07.33.33,0,0,1-.15-.27l-.18-.74c-.21.19-.41.36-.61.51a3.4,3.4,0,0,1-.63.38,3.19,3.19,0,0,1-.7.23,3.6,3.6,0,0,1-.83.08,3,3,0,0,1-.87-.12,2,2,0,0,1-.71-.4,1.68,1.68,0,0,1-.48-.66,2.25,2.25,0,0,1-.18-.94,1.8,1.8,0,0,1,.26-.91,2.28,2.28,0,0,1,.84-.78,5.44,5.44,0,0,1,1.51-.56,11.67,11.67,0,0,1,2.29-.25v-.61a2.09,2.09,0,0,0-.4-1.4,1.4,1.4,0,0,0-1.15-.47,2.4,2.4,0,0,0-.86.13,3.36,3.36,0,0,0-.6.28l-.44.29a.6.6,0,0,1-.37.13.41.41,0,0,1-.25-.07.52.52,0,0,1-.17-.19l-.27-.46a4.76,4.76,0,0,1,1.43-1,4.44,4.44,0,0,1,1.7-.32,3.19,3.19,0,0,1,1.19.22,2.31,2.31,0,0,1,.88.62,2.66,2.66,0,0,1,.53.95,4,4,0,0,1,.19,1.24v5.11Zm-3-.88a2.75,2.75,0,0,0,1.75-.62,5,5,0,0,0,.48-.45V162.6a13,13,0,0,0-1.63.16,4.06,4.06,0,0,0-1.09.32,1.51,1.51,0,0,0-.61.46,1,1,0,0,0-.19.59,1.27,1.27,0,0,0,.11.54.82.82,0,0,0,.27.36,1.08,1.08,0,0,0,.41.22A2.08,2.08,0,0,0,240.37,165.32Z"/><path class="cls-1" d="M253,158.35v7.85h-1.44v-6.8h-3.8v4.77a1.13,1.13,0,0,0,.21.74.75.75,0,0,0,.57.24,1.18,1.18,0,0,0,.35-.05,1.48,1.48,0,0,0,.25-.14l.17-.13a.3.3,0,0,1,.14-.05.21.21,0,0,1,.12,0,.24.24,0,0,1,.08.11l.43.68a2.4,2.4,0,0,1-.85.53,2.75,2.75,0,0,1-1,.19,1.82,1.82,0,0,1-1.4-.53,2.14,2.14,0,0,1-.49-1.52V159.4h-.89a.31.31,0,0,1-.3-.32v-.58l1.24-.16.32-2.46a.43.43,0,0,1,.11-.2.31.31,0,0,1,.22-.07h.74v2.74Zm.31-2.71a1,1,0,0,1-.08.39,1,1,0,0,1-.23.32,1.21,1.21,0,0,1-.32.22,1.09,1.09,0,0,1-.39.08,1,1,0,0,1-.39-.08,1.16,1.16,0,0,1-.31-.22,1.21,1.21,0,0,1-.22-.32,1,1,0,0,1,0-.78,1.27,1.27,0,0,1,.22-.33,1.16,1.16,0,0,1,.31-.22,1,1,0,0,1,.39-.08,1.09,1.09,0,0,1,.39.08,1.21,1.21,0,0,1,.32.22,1.09,1.09,0,0,1,.23.33A1,1,0,0,1,253.32,155.64Z"/><path class="cls-1" d="M258.64,158.08a4.14,4.14,0,0,1,1.57.29,3.27,3.27,0,0,1,1.2.83,3.57,3.57,0,0,1,.75,1.29,5.52,5.52,0,0,1,0,3.41,3.7,3.7,0,0,1-.75,1.3,3.37,3.37,0,0,1-1.2.82,4,4,0,0,1-1.57.29,4,4,0,0,1-1.59-.29,3.37,3.37,0,0,1-1.2-.82,3.72,3.72,0,0,1-.76-1.3,5.52,5.52,0,0,1,0-3.41,3.59,3.59,0,0,1,.76-1.29,3.27,3.27,0,0,1,1.2-.83A4.21,4.21,0,0,1,258.64,158.08Zm0,7.11a2.31,2.31,0,0,0,1-.2,1.77,1.77,0,0,0,.72-.58,2.64,2.64,0,0,0,.44-.94,5.36,5.36,0,0,0,.14-1.27,5.42,5.42,0,0,0-.14-1.27,2.64,2.64,0,0,0-.44-.94,2,2,0,0,0-.72-.59,2.46,2.46,0,0,0-1-.2,2.49,2.49,0,0,0-1,.2,2,2,0,0,0-.73.59,2.63,2.63,0,0,0-.43.94,4.92,4.92,0,0,0-.15,1.27,4.86,4.86,0,0,0,.15,1.27,2.63,2.63,0,0,0,.43.94,1.8,1.8,0,0,0,.73.58A2.34,2.34,0,0,0,258.64,165.19Z"/><path class="cls-1" d="M264.19,166.2v-8h.86a.49.49,0,0,1,.25.07.32.32,0,0,1,.11.23l.13.85a4,4,0,0,1,1.15-.92,3,3,0,0,1,1.47-.35,2.74,2.74,0,0,1,1.15.22,2.22,2.22,0,0,1,.83.61,2.75,2.75,0,0,1,.51,1,4.3,4.3,0,0,1,.17,1.23v5.1h-1.44v-5.1a2.17,2.17,0,0,0-.41-1.39,1.49,1.49,0,0,0-1.23-.49,2.28,2.28,0,0,0-1.14.29,3.32,3.32,0,0,0-1,.8v5.89Z"/><path class="cls-1" d="M108,144.54h10.42v3.14H104.23v-27H108Z"/><path class="cls-1" d="M137.85,120.68v3h-12v8.86h9.68v2.94h-9.68v9.12h12l0,3H122.07v-27Z"/><path class="cls-1" d="M150,127.28a10.24,10.24,0,0,1,4,.73,8.27,8.27,0,0,1,3,2.07,9.31,9.31,0,0,1,1.9,3.26,14,14,0,0,1,0,8.57,9.31,9.31,0,0,1-1.9,3.26,8.27,8.27,0,0,1-3,2.07,11.16,11.16,0,0,1-7.94,0,8.35,8.35,0,0,1-3-2.07,9.18,9.18,0,0,1-1.91-3.26,14,14,0,0,1,0-8.57,9.18,9.18,0,0,1,1.91-3.26,8.35,8.35,0,0,1,3-2.07A10.3,10.3,0,0,1,150,127.28Zm0,17.88a5.9,5.9,0,0,0,2.54-.51,4.57,4.57,0,0,0,1.82-1.47,6.51,6.51,0,0,0,1.09-2.36,14.27,14.27,0,0,0,0-6.37,6.51,6.51,0,0,0-1.09-2.36,4.68,4.68,0,0,0-1.82-1.48,5.9,5.9,0,0,0-2.54-.52,6.06,6.06,0,0,0-2.58.52,4.64,4.64,0,0,0-1.83,1.48,6.51,6.51,0,0,0-1.09,2.36,14.27,14.27,0,0,0,0,6.37,6.51,6.51,0,0,0,1.09,2.36,4.53,4.53,0,0,0,1.83,1.47A6.06,6.06,0,0,0,150,145.16Z"/><path class="cls-1" d="M179.83,120.68v3h-12v8.86h9.68v2.94h-9.68v9.12h12l0,3H164.05v-27Z"/><path class="cls-2" d="M107.14,77.68a35.41,35.41,0,0,1-1.88,28.39,34.53,34.53,0,0,1-14.59,14.84A2.77,2.77,0,0,0,89,123.74c.08,3.71,0,7.41,0,11.12,0,1.28-.45,1.74-1.83,1.74q-17.72-.06-35.44,0c-1.16,0-1.46-.39-1.45-1.37,0-3.62,0-7.23,0-10.84a3.28,3.28,0,0,0-1.47-3.23c-2.77-1.59-4-4.26-5.41-6.8a3.64,3.64,0,0,0-2-1.91c-4.42-1.59-7-5.08-6.72-9.48a4.5,4.5,0,0,0-1.61-3.9c-4.65-4.36-5.21-10.34-1.53-15.53a2.32,2.32,0,0,0,.28-2.4,10,10,0,0,1,5.82-12.89,2.87,2.87,0,0,0,2-2.22,14.55,14.55,0,0,1,28.07-.53,22.54,22.54,0,0,1,.55,6.23q0,26,0,52.06c0,2.95,0,5.9-.06,8.84,0,1.09.56,1.45,1.56,1.42s1.5-.39,1.49-1.49q0-21.53,0-43.07,0-16.77,0-33.52c0-1.85.21-2.09,2.15-2s3.86.33,5.79.5a1.92,1.92,0,0,1,1.45,0q18.81,4.61,26.28,21.7A1.87,1.87,0,0,1,107.14,77.68Z"/><path class="cls-3" d="M117.72,71.18l-4.33-1.28a.63.63,0,0,1-.22-.51c.71-3.85-1.25-6.87-3.54-9.66A36.28,36.28,0,0,0,92.76,47.92,11.52,11.52,0,0,0,85,47.74a.75.75,0,0,1-.71,0q-3.85-6.31-7.72-12.64c-.24-.39-.44-.77,0-1.15s.92-.17,1.39,0l22,6.25c3,.86,6,1.73,9,2.56a5.63,5.63,0,0,1,3.51,2.67q8,13.38,16.13,26.75c.12.2.26.4.37.62.19.37.49.74.09,1.17s-.78.23-1.23.11c-2.81-.79-5.62-1.55-8.44-2.32C118.68,71.91,118.22,71.47,117.72,71.18Z"/><path class="cls-2" d="M69.94,139H82.48c2.11,0,2.2.11,2.17,2.06,0,2.76,0,5.51,0,8.27,0,4-1.94,6.12-6,6.58a1.87,1.87,0,0,0-1.79,1.38,7.41,7.41,0,0,1-13.85.06,2,2,0,0,0-1.9-1.47c-3.93-.47-5.88-2.56-5.95-6.36-.05-3,0-6,0-9,0-1.21.51-1.57,1.7-1.56C61.18,139.06,65.56,139,69.94,139Z"/><path class="cls-1" d="M84.3,47.7c3.55-1.76,7-.87,10.35.49A36.56,36.56,0,0,1,111.6,61.81c1.65,2.46,2.67,5.09,1.79,8.09-1.4,1.72-2.81,3.43-4.22,5.15a.38.38,0,0,1-.46-.42c.13-3.66-1.72-6.57-4-9.28A37.48,37.48,0,0,0,89.37,54.19,23.61,23.61,0,0,0,84.47,53a6.63,6.63,0,0,0-3.09.28c-.36.12-.85.55-1.17-.12Z"/><path class="cls-4" d="M80.21,53.12c5.2-1.54,9.61.52,13.85,2.91,5.72,3.23,10.54,7.39,13.69,13.1a12.57,12.57,0,0,1,1.42,5.92,14.66,14.66,0,0,1-2,2.63,35.46,35.46,0,0,0-9-13.55A37.15,37.15,0,0,0,80.6,54.82c-.48-.1-.95-.23-1.43-.35A3.59,3.59,0,0,1,80.21,53.12Z"/><path class="cls-5" d="M117.72,71.18a2.49,2.49,0,0,1,1.63.5,18.7,18.7,0,0,1-.64,5.21,9.29,9.29,0,0,0,1.57,6.92,9.58,9.58,0,0,1,1.85,5.48,13.11,13.11,0,0,1-1.69,5A15.12,15.12,0,0,1,117,98.51c-1.79,1.69-2.4,1.59-3.84-.29-1-1.27-.91-1.75.44-2.79,1.58-1.22,2.89-2.75,4.76-3.66.77-.37,1.9-.13,2.27-1.31a5.12,5.12,0,0,0-.31-3.75,8.42,8.42,0,0,0-.72-1.4,12.29,12.29,0,0,1-1.84-10.75A5.73,5.73,0,0,0,117.72,71.18Z"/><path class="cls-6" d="M65.82,120.1c0,4.09,0,8.18,0,12.27,0,1.28-.47,1.79-1.83,1.77q-4.71-.09-9.42,0c-1.28,0-1.85-.44-1.85-1.64,0-2.9,0-5.8,0-8.7,0-1.17.6-1.55,1.7-1.31a11.15,11.15,0,0,0,4.84-.4c.87-.19,1.47-.71,1.18-1.65s-1.07-.88-1.92-.66c-6.38,1.65-12.35-2.13-12.91-8.34-.23-2.65.86-5.12,2.28-7.4a4.47,4.47,0,0,1,.49-.71,1.06,1.06,0,0,0-.1-1.74c-.72-.56-1.27-.18-1.8.35a11,11,0,0,0-3.09,5.74c-.09.46-.19.93-.28,1.39-.13.65-.5.82-1.19.68-2.88-.59-5.39-4.42-4.62-7.07.22-.76.5-1.22,1.45-.88a1.24,1.24,0,0,0,1.83-.89c.24-1-.55-1.22-1.29-1.41-3.75-1-6.32-3.12-7.27-6.81a9.07,9.07,0,0,1,4.14-10c.33-.21.68-.4,1-.6.61-.35,1-.81.68-1.53s-1-.7-1.64-.56c-2.35.53-2.4.5-2.42-1.91a7.63,7.63,0,0,1,4-7.15c.92-.53,1.57-.7,1.74.76a11.09,11.09,0,0,0,2.36,5.62c.44.57.9,1.28,1.8.71s.7-1.25.22-2c-2.62-4.08-3-8.28-.58-12.57a12.25,12.25,0,0,1,12.74-5.71,12,12,0,0,1,9.47,10c.34,2.86.11,5.7.24,8.54,0,1-.35,1.15-1.34.93-3.25-.68-6.22,1.44-6.19,4.3,0,.74.18,1.38,1,1.49s1.15-.57,1.35-1.24c.52-1.8,1.35-2.51,2.75-2.38s2.38,1.33,2.38,3.13q0,9.12,0,18.26a3.39,3.39,0,0,1-1.47,3.1,3,3,0,0,1-4.49-1.92c-.24-.86-.16-2.21-1.61-1.9s-.86,1.58-.75,2.43c.34,2.86,3.41,4.69,6.74,3.92,1.49-.34,1.61.2,1.6,1.31C65.8,111.83,65.82,116,65.82,120.1Z"/><path class="cls-5" d="M73.8,77.37c0-6.42,0-12.84,0-19.26,0-1.12.32-1.5,1.52-1.43a32,32,0,0,1,17.9,6.72c9.63,7.49,14.25,17.37,13.26,29.12-1,12.1-7.45,21.24-18.75,27.05a2.21,2.21,0,0,0-1.47,2.3c.11,3.52.11,7,.2,10.55,0,1.07-.34,1.6-1.54,1.55a23.22,23.22,0,0,0-3.73,0c-1.2.16-1.28-.35-1.28-1.26,0-5.42,0-10.84,0-16.26,0-3.24,0-6.47,0-9.7a28.83,28.83,0,0,1,.47-4.82c.17-1.11.61-1.54,1.82-1.51a11.67,11.67,0,0,0,6-1.6A5,5,0,0,0,89.8,92c-1.31-2-4.3-2.48-6.64-1a9,9,0,0,0-4,5.35c-.54,1.81-1,2.09-3,1.9-2.39-.24-2.39-.24-2.39-2.7Z"/><path class="cls-7" d="M73.66,117.15q0-6.91,0-13.84a4.49,4.49,0,0,1,.1-1.27,1.85,1.85,0,0,1,2-1.42,1.77,1.77,0,0,1,1.8,1.44,7.27,7.27,0,0,1,.13,1.55q0,13.41,0,26.82a11.12,11.12,0,0,1,0,1.29c-.22,2.18-.22,2.15-2.57,2.15-.82,0-1.18-.1-1.25-1-.37-4.51,0-9-.16-13.54C73.65,118.58,73.66,117.86,73.66,117.15Z"/><path class="cls-5" d="M81.1,95.93c0-2.72,4.05-5.29,6.64-4.16a2.8,2.8,0,0,1,1.58,3.34A5.71,5.71,0,0,1,84,98.71,3,3,0,0,1,81.1,95.93Z"/><path class="cls-8" d="M70,141.28c3.68,0,7.37.05,11,0,1.4,0,1.29.7,1.33,1.62s-.54,1.22-1.37,1.2q-11.19-.18-22.4,0c-1,0-1.27-.4-1.25-1.3s0-1.55,1.28-1.53C62.47,141.32,66.25,141.28,70,141.28Z"/><path class="cls-8" d="M69.86,148.94c-3.68,0-7.36,0-11,0-.93,0-1.51-.11-1.44-1.23.06-.95.06-1.62,1.4-1.61,7.41,0,14.81,0,22.22,0,1.09,0,1.44.31,1.43,1.41S82.21,149,81.05,149C77.32,148.9,73.59,148.94,69.86,148.94Z"/><path class="cls-9" d="M69.9,151.11H81.11c.28,0,.62-.16.82.14s-.05.62-.25.88a3.74,3.74,0,0,1-3.13,1.66H61.21a3.82,3.82,0,0,1-3.12-1.68c-.17-.23-.43-.46-.3-.77s.57-.25.9-.25H69.9Z"/><path class="cls-10" d="M69.83,156c1.29,0,2.58.05,3.86,0s1.28.33.8,1.24a5.29,5.29,0,0,1-9.18.08c-.56-.82-.59-1.4.8-1.26,1.23.12,2.48,0,3.72,0Z"/><path class="cls-11" d="M71.2,155.75H67.72v-.11H71.2Z"/><path class="cls-12" d="M52.59,97.33c-3,0-6.15-2.14-7-4.49a1.11,1.11,0,0,1,.55-1.57,1.08,1.08,0,0,1,1.52.43c.23.31.42.65.65,1A5.47,5.47,0,0,0,53.43,95a5.36,5.36,0,0,0,4.8-3.52,13.49,13.49,0,0,0,.47-1.65c.17-.6.5-1.07,1.23-1a1.15,1.15,0,0,1,1.12,1.27,5.83,5.83,0,0,1-1.56,4.05A9.79,9.79,0,0,1,52.59,97.33Z"/><path class="cls-12" d="M53.7,62.76a6.78,6.78,0,0,1,6.72,5.55,4.84,4.84,0,0,1,0,.85,1.19,1.19,0,0,1-1.14,1.27c-.77.07-1.16-.4-1.28-1.1A5.26,5.26,0,0,0,57,66.56a4.28,4.28,0,0,0-7.15,1.16,6,6,0,0,0-.36,1.38c-.12.8-.49,1.44-1.4,1.29s-1-1-1-1.69A6.69,6.69,0,0,1,53.7,62.76Z"/><path class="cls-12" d="M47.3,81.93c.09-3.76,2.35-6.64,5.69-7.28.82-.16,1.54-.11,1.82.74S54.47,76.8,53.6,77a4.46,4.46,0,0,0-3.84,3.86c-.31,2,.7,3.39,2.33,4.46.76.51,1.41,1.1.74,2s-1.51.37-2.23-.07A6.39,6.39,0,0,1,47.3,81.93Z"/><path class="cls-13" d="M56,115.27a5.15,5.15,0,0,1-4.84-7.37c.33-.67.78-1.15,1.62-.85a1.13,1.13,0,0,1,.68,1.64,3.65,3.65,0,0,0-.11,2.52,2.79,2.79,0,0,0,3.73,1.37,15,15,0,0,0,1.43-.76,1.06,1.06,0,0,1,1.34.28c.4.37.25.74,0,1.15A4.31,4.31,0,0,1,56,115.27Z"/><path class="cls-13" d="M40.54,85.49a1.18,1.18,0,0,1,1.2.67,1.14,1.14,0,0,1-.19,1.44,2.78,2.78,0,0,1-.33.27c-3,2.16-3,2.37-.66,5a1.25,1.25,0,0,1,.22,1.69,1.27,1.27,0,0,1-1.57.44c-1.83-.56-3.08-3-2.74-5.19S38.7,85.53,40.54,85.49Z"/><path class="cls-14" d="M103.8,88.54v.28c0,.93.16,2.12-1.24,2.2s-1.36-1.12-1.41-2c-.63-9.89-5.11-17.7-13.79-23.22a26,26,0,0,0-8.77-3.47c-1-.21-2.2-.42-1.87-1.66s1.64-1.12,2.64-.86A33.41,33.41,0,0,1,91,65.06,30.7,30.7,0,0,1,103.8,88.54Z"/></svg>