<svg id="Layer_1" data-name="Layer 1" xmlns="http://www.w3.org/2000/svg" viewBox="0 0 300 200"><defs><style>.cls-1{fill:#031927;}.cls-2{fill:#508aa8;}.cls-3{fill:#ba1200;}</style></defs><circle class="cls-1" cx="70.16" cy="100" r="8.39"/><path class="cls-2" d="M74.46,148.08a12.9,12.9,0,0,1-4.3.75c-7.39,0-14-6.48-18.55-16.72-.25-.56-.49-1.14-.72-1.72a73.6,73.6,0,0,1-4.39-16.73c-.13-.9-.25-1.81-.36-2.72.7.57,1.41,1.13,2.13,1.69.12.91.26,1.81.41,2.7a69.64,69.64,0,0,0,4.06,14.83c.23.59.48,1.16.73,1.72l.54,1.17C58.3,142,64,146.9,70.16,146.9a11.31,11.31,0,0,0,3.29-.49A6.89,6.89,0,0,0,74.46,148.08Z"/><path class="cls-2" d="M52.74,69.84a69.64,69.64,0,0,0-4.06,14.83c-.15.89-.29,1.79-.41,2.7A96,96,0,0,0,47.44,100a94.35,94.35,0,0,0,.83,12.63c-.72-.56-1.43-1.12-2.13-1.69a96.83,96.83,0,0,1,0-21.88c.11-.92.23-1.83.36-2.72a73.74,73.74,0,0,1,4.39-16.73C51.5,69.68,52.11,69.75,52.74,69.84Z"/><path class="cls-2" d="M83.17,141.44l-.1.11a24.16,24.16,0,0,1-4.72,4.5,3.18,3.18,0,0,1-1.1-1.46,21.06,21.06,0,0,0,4.52-4.22l.07-.09A3.54,3.54,0,0,1,83.17,141.44Z"/><path class="cls-2" d="M94.8,100a94.86,94.86,0,0,1-.62,10.92c-.1.92-.22,1.82-.35,2.72a73.4,73.4,0,0,1-4.39,16.75c-.24.58-.48,1.16-.73,1.72a46.21,46.21,0,0,1-3.58,6.63c-.63,1-1.29,1.87-2,2.7a3.54,3.54,0,0,0-1.33-1.16,31.15,31.15,0,0,0,2-2.72,41.76,41.76,0,0,0,3.06-5.68c.26-.56.5-1.13.74-1.72a69.6,69.6,0,0,0,4.06-14.85c.15-.89.28-1.78.4-2.69A95.57,95.57,0,0,0,92.87,100,94.5,94.5,0,0,0,92,87.36c.73.56,1.44,1.13,2.14,1.7A97,97,0,0,1,94.8,100Z"/><path class="cls-2" d="M94.18,89.06c-.7-.57-1.41-1.14-2.14-1.7-.12-.91-.25-1.8-.4-2.69a69.8,69.8,0,0,0-4.06-14.83c-.24-.58-.48-1.16-.73-1.72-.18-.39-.36-.78-.55-1.17C82,58,76.28,53.1,70.16,53.1S58.3,58,54,67l-.54,1.17c-.62-.09-1.24-.17-1.86-.23,4.52-10.24,11.16-16.72,18.55-16.72s14,6.48,18.54,16.72c.26.56.5,1.14.73,1.72a73.74,73.74,0,0,1,4.39,16.73C94,87.23,94.07,88.14,94.18,89.06Z"/><path class="cls-3" d="M92,87.36a95.76,95.76,0,0,0-10.52-7,94.66,94.66,0,0,0-11.36-5.59c-.85-.35-1.69-.69-2.53-1a70.66,70.66,0,0,0-14.89-3.9c-.63-.09-1.24-.16-1.85-.23a45.58,45.58,0,0,0-4.59-.24,31.83,31.83,0,0,0-6.56.63,7.28,7.28,0,0,0-.69-1.66,34.55,34.55,0,0,1,7.38-.74,48.9,48.9,0,0,1,5.18.29c.62.06,1.24.14,1.86.23a74.45,74.45,0,0,1,16.69,4.57c.84.33,1.69.68,2.53,1a94.42,94.42,0,0,1,9.79,4.93,93.32,93.32,0,0,1,9.16,6C91.79,85.56,91.92,86.45,92,87.36Z"/><path class="cls-3" d="M112.44,124.41c-3,5.16-9.56,8-18.55,8a48.61,48.61,0,0,1-5.18-.29c.25-.56.49-1.14.73-1.72a45.3,45.3,0,0,0,4.58.25c8.13,0,14.08-2.55,16.76-7.19,3.06-5.3,1.66-12.73-3.93-20.91l-.74-1.05c-.36-.5-.74-1-1.12-1.49A70.45,70.45,0,0,0,94.18,89.06c-.11-.92-.23-1.83-.36-2.72A73.78,73.78,0,0,1,106.11,98.5c.39.5.77,1,1.13,1.5.56.76,1.09,1.53,1.59,2.3C114.43,110.91,115.71,118.76,112.44,124.41Z"/><path class="cls-3" d="M46.5,113.66a73.44,73.44,0,0,1-12.29-12.17c-.39-.49-.77-1-1.13-1.49s-.84-1.18-1.24-1.76c-5.62-8.41-7.17-16.18-4.37-21.9.12-.26.25-.5.4-.76a13,13,0,0,1,1.5-2.08l.15-.15a15.38,15.38,0,0,1,5.3-3.67,3.21,3.21,0,0,1,.9,1.59,13.61,13.61,0,0,0-5,3.64l-.05.06a10.78,10.78,0,0,0-1.11,1.58,12.84,12.84,0,0,0-.66,1.34c-2.23,5.4-.38,12.68,5.23,20.48l.1.14c.36.49.73,1,1.12,1.49a70.45,70.45,0,0,0,10.81,10.94C46.25,111.85,46.37,112.76,46.5,113.66Z"/><path class="cls-3" d="M87.59,130.16c-.24.59-.48,1.16-.74,1.72a74.06,74.06,0,0,1-16.69-4.57c-.84-.33-1.69-.68-2.53-1a94.32,94.32,0,0,1-9.79-4.92,92.77,92.77,0,0,1-9.16-6c-.15-.89-.29-1.79-.41-2.7a93.65,93.65,0,0,0,10.53,7,94.76,94.76,0,0,0,11.36,5.6c.84.35,1.69.68,2.53,1A69.24,69.24,0,0,0,87.59,130.16Z"/><path class="cls-3" d="M94.18,89.06c-.7-.57-1.41-1.14-2.14-1.7-.12-.91-.25-1.8-.4-2.69.74.55,1.46,1.1,2.18,1.67C94,87.23,94.07,88.14,94.18,89.06Z"/><path class="cls-1" d="M50.89,130.39c.23.58.47,1.16.72,1.72a48.9,48.9,0,0,1-5.18.29c-9,0-15.58-2.83-18.56-8-3.26-5.65-2-13.5,3.62-22.11.5-.77,1-1.54,1.59-2.3.36-.5.74-1,1.13-1.49A73.44,73.44,0,0,1,46.5,86.34c.71-.57,1.44-1.12,2.18-1.67A95.35,95.35,0,0,1,67.63,73.74c.84.31,1.68.65,2.53,1A94.66,94.66,0,0,0,58.8,80.33a96.45,96.45,0,0,0-10.53,7c-.72.55-1.43,1.12-2.13,1.69A69.57,69.57,0,0,0,35.33,100c-.39.5-.76,1-1.12,1.49s-.5.7-.74,1.05c-5.6,8.19-7,15.61-3.93,20.91,2.67,4.64,8.63,7.19,16.75,7.19A45.85,45.85,0,0,0,50.89,130.39Z"/><path class="cls-1" d="M92.05,112.62c-.12.91-.25,1.8-.4,2.69a93.64,93.64,0,0,1-9.17,6,94.32,94.32,0,0,1-9.79,4.92c-.84.37-1.69.72-2.53,1a74.45,74.45,0,0,1-16.69,4.57c-.25-.56-.5-1.13-.73-1.72a70.05,70.05,0,0,0,14.89-3.9c.84-.31,1.68-.64,2.53-1a94.76,94.76,0,0,0,11.36-5.6A93.71,93.71,0,0,0,92.05,112.62Z"/><path class="cls-1" d="M106.11,101.49a74.44,74.44,0,0,1-12.28,12.15c.13-.9.25-1.8.35-2.72A70.34,70.34,0,0,0,105,100C105.37,100.49,105.75,101,106.11,101.49Z"/><path class="cls-1" d="M109.61,96.46q-1.08,1.77-2.37,3.54c-.36-.5-.74-1-1.13-1.5.68-.93,1.31-1.87,1.89-2.81A7.23,7.23,0,0,0,109.61,96.46Z"/><path class="cls-1" d="M114.19,83a19.85,19.85,0,0,1-.4,3.34,1,1,0,0,1,0,.17,27.76,27.76,0,0,1-2.08,6.06A3.14,3.14,0,0,1,110,92a25.66,25.66,0,0,0,2-6s0-.06,0-.09a15.75,15.75,0,0,0,.29-3.36,12.07,12.07,0,0,0-1.57-6c-2.68-4.63-8.63-7.18-16.76-7.18a45.58,45.58,0,0,0-4.59.24c-.61.07-1.22.14-1.85.23a70.5,70.5,0,0,0-14.89,3.9c-.84-.37-1.69-.72-2.53-1a74.31,74.31,0,0,1,16.69-4.57c.62-.09,1.24-.17,1.85-.23a48.94,48.94,0,0,1,5.19-.29c9,0,15.58,2.84,18.55,8A13.7,13.7,0,0,1,114.19,83Z"/><path class="cls-2" d="M83.81,143.48a3.6,3.6,0,0,1-7.07.93,3.54,3.54,0,0,1-.12-.93,3.59,3.59,0,0,1,3.59-3.59,3.51,3.51,0,0,1,1.22.21,3,3,0,0,1,.41.18,3.54,3.54,0,0,1,1.33,1.16,2.14,2.14,0,0,1,.23.38A3.46,3.46,0,0,1,83.81,143.48Z"/><path class="cls-1" d="M115.52,89.46a3.58,3.58,0,0,1-3.58,3.59h0a3.6,3.6,0,0,1-.31-7.18h.31a3.51,3.51,0,0,1,2.24.79A3.55,3.55,0,0,1,115.52,89.46Z"/><path class="cls-3" d="M36.22,72a3.59,3.59,0,1,1-1.32-2.79,3.65,3.65,0,0,1,1.3,2.36C36.21,71.68,36.22,71.82,36.22,72Z"/><path class="cls-1" d="M161,87.48l-2,2.52a10.56,10.56,0,0,0-6.39-2.07c-4,0-5.57,2.29-5.57,4.45a4.62,4.62,0,0,0,1.8,3.55,13,13,0,0,0,4.31,1.89,15.41,15.41,0,0,1,6.07,2.83,8.5,8.5,0,0,1,3,6.25c0,4.09-3.1,8.36-9.58,8.36a14.08,14.08,0,0,1-9.16-3.24l2.11-2.42a10.73,10.73,0,0,0,7,2.51c4.5,0,6.25-2.78,6.25-5.21a5.39,5.39,0,0,0-2-4c-1.21-1-3.05-1.57-5.12-2.2a13.4,13.4,0,0,1-5.26-2.52,7.71,7.71,0,0,1-2.79-5.71c0-4.27,3.33-7.68,8.9-7.68A13.85,13.85,0,0,1,161,87.48Z"/><path class="cls-1" d="M181.53,113.33a11.74,11.74,0,0,1-6.47,1.93,8.2,8.2,0,0,1-6.38-2.65c-2.16-2.43-2.16-5.89-2.16-8.54,0-2.34,0-5.71,2.11-8.14a8.17,8.17,0,0,1,6.43-2.69A11.52,11.52,0,0,1,181.22,95l-1.53,2.56a8.86,8.86,0,0,0-4.63-1.35,5.06,5.06,0,0,0-4,1.62c-1.4,1.62-1.4,4.27-1.4,6.25,0,2.29,0,5,1.44,6.65a5,5,0,0,0,4,1.57,8.55,8.55,0,0,0,4.85-1.48Z"/><path class="cls-1" d="M189.93,87.93a2.11,2.11,0,1,1-2.11-2.11A2,2,0,0,1,189.93,87.93Zm-3.68,5.58h3.15V115h-3.15Z"/><path class="cls-1" d="M214.34,85.06V88.2h-8.45V115h-3.33V88.2h-8.45V85.06Z"/><path class="cls-1" d="M221.49,112.29A11.93,11.93,0,0,0,227,111l1.3,2.7a15,15,0,0,1-6.78,1.57c-3.1,0-5.58-1.12-7-3.06-1.71-2.33-1.71-5-1.71-8,0-3.51,0-5.58,1.62-7.82,1.43-2,4.13-3.19,7.32-3.19a8.41,8.41,0,0,1,5.4,1.66,6.18,6.18,0,0,1,2.24,4.54,5.35,5.35,0,0,1-2.24,4.4c-1.89,1.35-3.82,1.35-7,1.35H216c0,1.17,0,3.82,1,5.22A5.2,5.2,0,0,0,221.49,112.29ZM225,97.15a5.24,5.24,0,0,0-3.33-1A5.87,5.87,0,0,0,217.08,98C216,99.26,216,101.51,216,102.4h4.13c2.84,0,4.09,0,5-.71a2.81,2.81,0,0,0,1.08-2.25A3.29,3.29,0,0,0,225,97.15Z"/><path class="cls-1" d="M252.05,87.53,250.12,90a9.44,9.44,0,0,0-5.93-2.11A6.42,6.42,0,0,0,239,90.18c-1.57,2.07-1.57,4.22-1.57,9.84s0,7.78,1.57,9.85a6.44,6.44,0,0,0,5.22,2.24,9.45,9.45,0,0,0,6.33-2.38l2,2.47a12.68,12.68,0,0,1-8.36,3.06,9.69,9.69,0,0,1-8-3.6c-2.16-2.83-2.16-5.84-2.16-11.64s0-8.81,2.16-11.64a9.72,9.72,0,0,1,8-3.59A12.57,12.57,0,0,1,252.05,87.53Z"/><path class="cls-1" d="M261.31,85.06V95.75a6,6,0,0,1,4.94-2.51,7.5,7.5,0,0,1,5.58,2.29c2.07,2.2,2.07,4.81,2.07,8V115h-3.15V103.48c0-2.78,0-4.67-1.3-6a5.12,5.12,0,0,0-6.84,0c-1.3,1.3-1.3,3.19-1.3,6V115h-3.15V85.06Z"/></svg>