<svg xmlns="http://www.w3.org/2000/svg" viewBox="0 0 301.01 152.59"><defs><style>.cls-1,.cls-2{fill:#0e6bad;}.cls-2{font-size:18.24px;font-family:Tahoma;}.cls-3{fill:#f2a028;}.cls-4{fill:#73b32d;}</style></defs><g id="Layer_2" data-name="Layer 2"><g id="Logos"><path class="cls-1" d="M176.51,84A13.68,13.68,0,0,1,175,90.48a13.38,13.38,0,0,1-4,4.65,18.86,18.86,0,0,1-6.34,3.09,34.42,34.42,0,0,1-8.74.91H140.92V49.82h13.92a74.66,74.66,0,0,1,8.4.35,16.31,16.31,0,0,1,5.37,1.64,9.34,9.34,0,0,1,4.12,3.72A10.76,10.76,0,0,1,174,60.94a10.48,10.48,0,0,1-2,6.22,13.05,13.05,0,0,1-5.41,4.3v.27a13.21,13.21,0,0,1,7.27,4.35A12.13,12.13,0,0,1,176.51,84m-9.73-22.13a7.12,7.12,0,0,0-.64-3.1,4.63,4.63,0,0,0-2-2.07,10.13,10.13,0,0,0-3.77-1.09c-1.39-.13-3.3-.2-5.75-.2h-6.69V69.84h7.93a27.61,27.61,0,0,0,4.82-.31,10.22,10.22,0,0,0,3.21-1.31,5.43,5.43,0,0,0,2.26-2.52,9.86,9.86,0,0,0,.67-3.84m2.47,22.4a11,11,0,0,0-.84-4.6A7,7,0,0,0,165,76.59a10.86,10.86,0,0,0-3.62-1.06,49,49,0,0,0-5.55-.23h-7.93V93.55h5.67a50.36,50.36,0,0,0,7.23-.4,11.51,11.51,0,0,0,4.65-1.69,7.54,7.54,0,0,0,3.81-7.2"/><polygon class="cls-1" points="183.46 99.14 183.46 49.82 216.32 49.82 216.32 55.65 190.42 55.65 190.42 69.17 214.56 69.17 214.56 75 190.42 75 190.42 93.3 216.32 93.3 216.32 99.14 183.46 99.14"/><path class="cls-1" d="M238.57,100a36.75,36.75,0,0,1-9.71-1.11,49.69,49.69,0,0,1-7.51-2.73V88h.49a25.28,25.28,0,0,0,7.82,4.71,23.55,23.55,0,0,0,8.41,1.67c3.85,0,6.76-.75,8.73-2.27a7.16,7.16,0,0,0,3-6,7.26,7.26,0,0,0-1.55-4.8,9.33,9.33,0,0,0-4.93-2.74c-1.62-.44-3.1-.81-4.43-1.1s-3-.67-5-1.15a26.18,26.18,0,0,1-4.87-1.69,13.82,13.82,0,0,1-3.8-2.68,11.6,11.6,0,0,1-2.52-3.83,13.31,13.31,0,0,1-.9-5.08,12.51,12.51,0,0,1,5-10q5-4.05,12.67-4.05a40.43,40.43,0,0,1,8.33.83A34.21,34.21,0,0,1,255,52.12V60h-.52A23.63,23.63,0,0,0,248,56.21a21.4,21.4,0,0,0-8.2-1.61A13.17,13.17,0,0,0,232,56.74a6.56,6.56,0,0,0-3,5.61,7,7,0,0,0,1.75,5,10.51,10.51,0,0,0,5.11,2.71c1.48.37,3.29.8,5.42,1.27s3.91.91,5.32,1.31q5.43,1.56,7.93,4.7a12.05,12.05,0,0,1,2.5,7.75,14,14,0,0,1-1.25,5.69,13.37,13.37,0,0,1-3.5,4.77,18.59,18.59,0,0,1-5.73,3.31,23.59,23.59,0,0,1-8,1.16"/><polygon class="cls-1" points="276.41 99.14 276.41 55.65 258.79 55.65 258.79 49.82 301.01 49.82 301.01 55.65 283.38 55.65 283.38 99.14 276.41 99.14"/><text class="cls-2" transform="translate(242.53 118.44)">PORTO</text><path class="cls-1" d="M114.74,99.2l-11.56-6.66H73L61.45,99.2c11.06,19.21,44.11,50.67,79.94,53.39-12.49-7-32.35-32.11-26.65-53.39"/><path class="cls-3" d="M90,63.11h0l-.23-.39ZM122.9,0c.19,14.31-11.63,44.06-32.91,49.77V63.11l15.09,26.13,11.54,6.68C127.74,76.74,138.46,32.38,122.9,0"/><path class="cls-4" d="M71.1,89.24h0l-.22.4ZM86.2,49.77C64,49.74,20.26,62.64,0,92.31c12.3-7.32,44-12,59.56,3.62L71.1,89.24,86.19,63.11Z"/><path class="cls-1" d="M81,81.63a7.08,7.08,0,1,1,7.07,7.07A7.07,7.07,0,0,1,81,81.63"/></g></g></svg>