<svg xmlns="http://www.w3.org/2000/svg" viewBox="0 0 300.54 152.35"><defs><style>.cls-1,.cls-2{fill:#fff;}.cls-2{font-size:18.21px;font-family:Tahoma;}</style></defs><g id="Layer_2" data-name="Layer 2"><g id="Logos"><path class="cls-1" d="M176.24,83.86a13.64,13.64,0,0,1-1.48,6.48,13.24,13.24,0,0,1-4,4.64,18.82,18.82,0,0,1-6.33,3.09,34.25,34.25,0,0,1-8.72.91h-15V49.74h13.9a74.58,74.58,0,0,1,8.39.35,16.32,16.32,0,0,1,5.36,1.64,9.38,9.38,0,0,1,4.12,3.71,10.84,10.84,0,0,1,1.3,5.4,10.48,10.48,0,0,1-2,6.22,13.08,13.08,0,0,1-5.4,4.29v.27A13.18,13.18,0,0,1,173.67,76a12.09,12.09,0,0,1,2.57,7.89m-9.72-22.1a6.9,6.9,0,0,0-.64-3.09,4.63,4.63,0,0,0-2-2.07,9.84,9.84,0,0,0-3.76-1.08c-1.39-.14-3.3-.2-5.74-.2h-6.68V69.73h7.92a26.72,26.72,0,0,0,4.82-.31,10.36,10.36,0,0,0,3.2-1.31,5.49,5.49,0,0,0,2.25-2.51,9.86,9.86,0,0,0,.67-3.84M169,84.13a10.88,10.88,0,0,0-.84-4.59,6.92,6.92,0,0,0-3.42-3.07,11,11,0,0,0-3.61-1.06,51.44,51.44,0,0,0-5.54-.23h-7.92V93.41h5.67a51.65,51.65,0,0,0,7.21-.4,11.66,11.66,0,0,0,4.65-1.69,8.65,8.65,0,0,0,2.89-2.93,8.85,8.85,0,0,0,.91-4.26"/><polygon class="cls-1" points="183.17 98.98 183.17 49.74 215.99 49.74 215.99 55.57 190.13 55.57 190.13 69.06 214.22 69.06 214.22 74.89 190.13 74.89 190.13 93.16 215.99 93.16 215.99 98.98 183.17 98.98"/><path class="cls-1" d="M238.2,99.86a37,37,0,0,1-9.69-1.1A50.09,50.09,0,0,1,221,96v-8.2h.5a25.18,25.18,0,0,0,7.8,4.71,23.48,23.48,0,0,0,8.4,1.66c3.85,0,6.75-.75,8.72-2.26a7.14,7.14,0,0,0,3-6,7.21,7.21,0,0,0-1.54-4.79,9.31,9.31,0,0,0-4.92-2.75c-1.62-.44-3.1-.8-4.43-1.09s-3-.67-5-1.15a24.48,24.48,0,0,1-4.86-1.69,13.61,13.61,0,0,1-3.8-2.68A11.34,11.34,0,0,1,222.28,68a13.35,13.35,0,0,1-.9-5.08,12.47,12.47,0,0,1,5-10q4.95-4,12.65-4a40.26,40.26,0,0,1,8.32.83A34.49,34.49,0,0,1,254.57,52v7.84H254a23.48,23.48,0,0,0-6.39-3.75,21.17,21.17,0,0,0-8.19-1.61,13.2,13.2,0,0,0-7.84,2.13,6.58,6.58,0,0,0-3,5.6,7,7,0,0,0,1.76,5A10.44,10.44,0,0,0,235.48,70c1.48.37,3.29.8,5.42,1.27s3.91.91,5.31,1.31q5.41,1.55,7.92,4.69A12.05,12.05,0,0,1,256.62,85a13.75,13.75,0,0,1-1.25,5.68,13.4,13.4,0,0,1-3.49,4.76,18.63,18.63,0,0,1-5.72,3.3,23.28,23.28,0,0,1-8,1.16"/><polygon class="cls-1" points="275.99 98.98 275.99 55.57 258.39 55.57 258.39 49.74 300.54 49.74 300.54 55.57 282.94 55.57 282.94 98.98 275.99 98.98"/><text class="cls-2" transform="translate(242.16 118.26)">PORTO</text><path class="cls-1" d="M114.56,99.05,103,92.4H72.89L61.35,99.05c11,19.18,44.05,50.58,79.82,53.3-12.47-7-32.3-32.06-26.61-53.3"/><path class="cls-1" d="M89.86,63h0l-.23-.39ZM122.71,0c.19,14.29-11.61,44-32.86,49.69V63L104.92,89.1l11.53,6.67C127.54,76.62,138.24,32.33,122.71,0"/><path class="cls-1" d="M71,89.1h0l-.22.4ZM86.07,49.69C63.94,49.66,20.23,62.54,0,92.16c12.28-7.3,43.91-11.94,59.46,3.62L71,89.1,86.06,63Z"/><path class="cls-1" d="M80.89,81.5A7.07,7.07,0,1,1,88,88.56a7.07,7.07,0,0,1-7.07-7.06"/></g></g></svg>